# xmcd CD database file
#
# Track frame offsets:
#	150
#	13702
#	33857
#	49608
#	67645
#	81678
#	97321
#	112662
#	126574
#	144583
#	157462
#	175744
#	190869
#	208126
#	225403
#	243586
#	263184
#	276613
#	294039
#	311396
#
# Disc length: 4540 seconds
#
# Revision: 0
# Processed by: cddbd v1.5.2PL0 Copyright (c) Steve Scherf et al.
# Submitted via: CDex 1.50beta10
#
DISCID=2411ba14
DTITLE=Rod Stewart - The Great American Songbook- 1&3 Collect
DYEAR=2014
DGENRE=Jazz
TTITLE0=For Sentimental Reasons
TTITLE1=What a Wonderful World (feat. Stevie Wonder)
TTITLE2=They Can't Take That Away From Me
TTITLE3=Have I Told You Lately
TTITLE4=Night and Day
TTITLE5=It Had To Be You
TTITLE6=The Very Thought of You
TTITLE7=That's All
TTITLE8=Stardust
TTITLE9=Manhattan (duet with Bette Midler)
TTITLE10=Blue Moon (feat. Eric Clapton)
TTITLE11='S Wonderful
TTITLE12=Isn't It Romantic
TTITLE13=Baby, It's Cold Outside (duet with Dolly Parton)
TTITLE14=A Nightingale Sang in Berkeley Square
TTITLE15=You Go To My Head
TTITLE16=That Old Feeling
TTITLE17=These Foolish Things
TTITLE18=Don't Come Around Here
TTITLE19=The Killing Of Georgie
EXTD=YEAR: 2014
EXTT0=
EXTT1=
EXTT2=
EXTT3=
EXTT4=
EXTT5=
EXTT6=
EXTT7=
EXTT8=
EXTT9=
EXTT10=
EXTT11=
EXTT12=
EXTT13=
EXTT14=
EXTT15=
EXTT16=
EXTT17=
EXTT18=
EXTT19=
PLAYORDER=
